<?xml version="1.0" encoding="UTF-8"?>
<svg width="440px" height="440px" viewBox="0 0 440 440" version="1.1" xmlns="http://www.w3.org/2000/svg" xmlns:xlink="http://www.w3.org/1999/xlink">
    <title>microchatbots</title>
    <g id="Page-1" stroke="none" stroke-width="1" fill="none" fill-rule="evenodd">
        <g id="Artboard" transform="translate(-398.000000, -167.000000)">
            <g id="microchatbots" transform="translate(398.000000, 167.000000)">
                <circle id="Oval-2" fill="#000000" fill-rule="nonzero" cx="220" cy="220" r="220"></circle>
                <g id="Group" transform="translate(55.120000, 125.000000)" fill="#FFFFFF">
                    <path d="M64.4,79 C64.88,79 65.2,78.68 65.2,78.2 L65.2,36.2 C65.2,35.88 65.44,35.64 65.76,35.64 C66.08,35.64 66.24,35.88 66.32,36.04 L74.88,50.6 C75.04,50.92 75.28,51.08 75.6,51.08 C75.92,51.08 76.16,50.92 76.32,50.6 L84.8,36.04 C84.88,35.88 85.04,35.64 85.36,35.64 C85.68,35.64 85.92,35.88 85.92,36.2 L85.92,78.2 C85.92,78.68 86.24,79 86.72,79 L90.72,79 C91.2,79 91.52,78.68 91.52,78.2 L91.52,23.8 C91.52,23.32 91.2,23 90.72,23 L87.12,23 C86.64,23 86.32,23.24 86.08,23.64 L76,40.68 C75.92,40.84 75.76,41 75.52,41 C75.28,41 75.12,40.84 75.04,40.68 L65.04,23.64 C64.8,23.24 64.48,23 64,23 L60.4,23 C59.92,23 59.6,23.32 59.6,23.8 L59.6,78.2 C59.6,78.68 59.92,79 60.4,79 L64.4,79 Z M109.52,79 C110,79 110.32,78.68 110.32,78.2 L110.32,23.8 C110.32,23.32 110,23 109.52,23 L105.12,23 C104.64,23 104.32,23.32 104.32,23.8 L104.32,78.2 C104.32,78.68 104.64,79 105.12,79 L109.52,79 Z M135.68,79.96 C143.68,79.96 149.52,74.36 149.92,66.6 C149.92,66.12 149.6,65.8 149.12,65.8 L144.72,65.8 C144.24,65.8 143.92,66.04 143.92,66.6 C143.6,71.32 140.32,74.28 135.68,74.28 C130.8,74.28 127.52,71 127.52,65.8 L127.52,36.36 C127.52,31.08 130.8,27.8 135.68,27.8 C140.32,27.8 143.6,30.76 143.92,35.56 C143.92,36.12 144.24,36.36 144.72,36.36 L149.12,36.36 C149.6,36.36 149.92,36.04 149.92,35.56 C149.52,27.72 143.68,22.12 135.68,22.12 C127.44,22.12 121.52,28.12 121.52,36.36 L121.52,65.8 C121.52,73.96 127.44,79.96 135.68,79.96 Z M164.72,79 C165.2,79 165.52,78.68 165.52,78.2 L165.52,70.44 C165.52,69.96 165.84,69.64 166.32,69.64 L167.52,69.64 C169.44,69.64 172.4,69.08 172.72,69 C173.2,68.92 173.6,69.08 173.84,69.56 L178.24,78.36 C178.4,78.76 178.72,79 179.12,79 L184.4,79 C184.96,79 185.28,78.52 184.96,77.96 L179.04,66.84 C178.88,66.52 178.88,66.2 179.2,65.96 C184.8,61.8 188.16,54.6 188.16,46.36 C188.16,33.48 180,23.08 167.52,23.08 L160.32,23.08 C159.84,23.08 159.52,23.4 159.52,23.88 L159.52,78.2 C159.52,78.68 159.84,79 160.32,79 L164.72,79 Z M167.52,64.04 L166.32,64.04 C165.84,64.04 165.52,63.72 165.52,63.24 L165.52,29.48 C165.52,29 165.84,28.68 166.32,28.68 L167.52,28.68 C176.72,28.68 182,36.76 182,46.36 C182,56.04 176.72,64.04 167.52,64.04 Z M14.16,175.96 C22.16,175.96 28,170.36 28.4,162.6 C28.4,162.12 28.08,161.8 27.6,161.8 L23.2,161.8 C22.72,161.8 22.4,162.04 22.4,162.6 C22.08,167.32 18.8,170.28 14.16,170.28 C9.28,170.28 6,167 6,161.8 L6,132.36 C6,127.08 9.28,123.8 14.16,123.8 C18.8,123.8 22.08,126.76 22.4,131.56 C22.4,132.12 22.72,132.36 23.2,132.36 L27.6,132.36 C28.08,132.36 28.4,132.04 28.4,131.56 C28,123.72 22.16,118.12 14.16,118.12 C5.92,118.12 0,124.12 0,132.36 L0,161.8 C0,169.96 5.92,175.96 14.16,175.96 Z M43.2,175 C43.68,175 44,174.68 44,174.2 L44,145.4 C44,144.92 44.32,144.6 44.8,144.6 L58.96,144.6 C59.44,144.6 59.76,144.92 59.76,145.4 L59.76,174.2 C59.76,174.68 60.08,175 60.56,175 L64.96,175 C65.44,175 65.76,174.68 65.76,174.2 L65.76,119.8 C65.76,119.32 65.44,119 64.96,119 L60.56,119 C60.08,119 59.76,119.32 59.76,119.8 L59.76,138.2 C59.76,138.68 59.44,139 58.96,139 L44.8,139 C44.32,139 44,138.68 44,138.2 L44,119.8 C44,119.32 43.68,119 43.2,119 L38.8,119 C38.32,119 38,119.32 38,119.8 L38,174.2 C38,174.68 38.32,175 38.8,175 L43.2,175 Z M79.68,175 C80.16,175 80.4,174.84 80.48,174.28 L81.76,165.08 C81.84,164.44 82.16,164.28 82.64,164.28 L94.48,164.28 C94.96,164.28 95.28,164.44 95.36,165.08 L96.64,174.28 C96.72,174.84 96.96,175 97.44,175 L101.76,175 C102.24,175 102.56,174.6 102.48,174.12 L94.72,119.8 C94.64,119.24 94.32,119 93.84,119 L83.12,119 C82.64,119 82.32,119.24 82.24,119.8 L74.56,174.12 C74.48,174.6 74.88,175 75.36,175 L79.68,175 Z M93.68,158.52 L83.44,158.52 C82.96,158.52 82.64,158.2 82.72,157.72 L87.12,125.72 C87.2,125.24 87.36,125.08 87.84,125.08 L89.28,125.08 C89.76,125.08 89.92,125.24 90,125.72 L94.32,157.72 C94.4,158.2 94.16,158.52 93.68,158.52 Z M122.8,175 C123.28,175 123.6,174.68 123.6,174.2 L123.6,125.4 C123.6,124.92 123.92,124.6 124.4,124.6 L133.92,124.6 C134.4,124.6 134.72,124.28 134.72,123.8 L134.72,119.8 C134.72,119.32 134.4,119 133.92,119 L107.28,119 C106.8,119 106.48,119.32 106.48,119.8 L106.48,123.8 C106.48,124.28 106.8,124.6 107.28,124.6 L116.8,124.6 C117.28,124.6 117.6,124.92 117.6,125.4 L117.6,174.2 C117.6,174.68 117.92,175 118.4,175 L122.8,175 Z M154.96,175 C165.76,175 173.68,166.92 173.68,156.36 C173.68,150.12 170.16,143.08 164.48,140.36 C164.32,140.28 164.24,140.04 164.48,139.88 C167.28,137.56 168.72,134.12 168.72,130.84 C168.72,124.36 163.36,119 156.64,119 L145.92,119 C145.44,119 145.12,119.32 145.12,119.8 L145.12,174.2 C145.12,174.68 145.44,175 145.92,175 L154.96,175 Z M156.64,137.64 L151.76,137.64 C151.28,137.64 150.96,137.32 150.96,136.84 L150.96,125.4 C150.96,124.92 151.28,124.6 151.76,124.6 L156.64,124.6 C160.48,124.6 162.88,127.88 162.88,130.84 C162.88,133.88 160.48,137.64 156.64,137.64 Z M154.96,169.32 L151.76,169.32 C151.28,169.32 150.96,169 150.96,168.52 L150.96,143.88 C150.96,143.4 151.28,143.08 151.76,143.08 L155.52,143.08 C163.2,143.08 167.84,150.04 167.84,156.36 C167.84,163.56 163.12,169.32 154.96,169.32 Z M276.4,175 C276.88,175 277.2,174.68 277.2,174.2 L277.2,125.4 C277.2,124.92 277.52,124.6 278,124.6 L287.52,124.6 C288,124.6 288.32,124.28 288.32,123.8 L288.32,119.8 C288.32,119.32 288,119 287.52,119 L260.88,119 C260.4,119 260.08,119.32 260.08,119.8 L260.08,123.8 C260.08,124.28 260.4,124.6 260.88,124.6 L270.4,124.6 C270.88,124.6 271.2,124.92 271.2,125.4 L271.2,174.2 C271.2,174.68 271.52,175 272,175 L276.4,175 Z M310.16,175.96 C318.88,175.96 324.96,169.72 324.96,161.56 C324.96,154.12 321.04,148.84 314.08,144.68 L309.68,142.04 C305.2,139.32 302.4,136.68 302.4,131.96 C302.4,127.08 305.44,123.8 310.16,123.8 C314.8,123.8 318,126.6 318,131.56 C318,132.12 318.32,132.36 318.8,132.36 L323.2,132.36 C323.68,132.36 324,132.04 324,131.56 C324,123.56 318.16,118.12 310.16,118.12 C302.08,118.12 296.32,123.72 296.32,131.96 C296.32,138.92 300.32,143.56 306.72,147.32 L311.2,149.96 C315.84,152.68 318.96,156.36 318.96,161.56 C318.96,166.76 315.52,170.28 310.16,170.28 C305.12,170.28 301.52,167.08 301.52,162.28 C301.52,161.72 301.2,161.48 300.72,161.48 L296.32,161.48 C295.84,161.48 295.52,161.8 295.52,162.28 C295.52,170.04 301.84,175.96 310.16,175.96 Z" id="MICRCHATBTS" fill-rule="nonzero"></path>
                    <text id="" font-family="AppleColorEmoji, Apple Color Emoji" font-size="80" font-weight="normal">
                        <tspan x="193.88" y="80"></tspan>
                    </text>
                    <text id="" font-family="AppleColorEmoji, Apple Color Emoji" font-size="80" font-weight="normal">
                        <tspan x="179.88" y="177"></tspan>
                    </text>
                </g>
            </g>
        </g>
    </g>
</svg>